<svg width="583" height="443" viewBox="0 0 583 443" fill="none" xmlns="http://www.w3.org/2000/svg">
<path d="M546.479 188.026C564.078 206.035 564.184 234.908 546.95 253.268C528.592 272.827 497.506 273.577 478.479 254.668L260.781 38.3162C239.521 17.1878 205.177 17.2339 183.973 38.4194C162.725 59.6498 162.702 94.0827 183.921 115.342L394.764 326.581C415.904 347.761 416.097 381.999 395.196 403.415C373.893 425.243 338.853 425.428 317.321 403.827L102.048 187.86C83.5534 169.305 53.3981 169.653 35.3363 188.63C17.8907 206.959 18.2744 235.864 36.2003 253.724L37.5096 255.028C56.4564 273.905 87.1141 273.862 106.008 254.933L322.014 38.5228C343.177 17.321 377.536 17.3415 398.672 38.5685C419.738 59.724 419.694 93.9418 398.575 115.044L186.475 326.967C165.469 347.956 165.168 381.91 185.799 403.268C206.939 425.152 241.915 425.45 263.425 403.929L479.591 187.651C498.102 169.13 528.177 169.299 546.479 188.026Z" stroke="white" stroke-width="45"/>
</svg>
